<svg width="282" height="70" viewBox="0 0 282 70" fill="none" xmlns="http://www.w3.org/2000/svg">
<path d="M0 59.0371V22.1096H9.47587V52.6001H28.6902V59.0371H0Z" fill="black"/>
<path d="M129.954 59.56C127.809 59.56 125.898 59.2535 124.22 58.6405C122.542 58.0154 121.215 57.0958 120.237 55.8817C119.274 54.6556 118.793 53.129 118.793 51.3018C118.793 49.7632 119.136 48.471 119.822 47.4252C120.507 46.3794 121.441 45.5379 122.623 44.9008C123.804 44.2637 125.147 43.7829 126.649 43.4583C128.167 43.1338 129.757 42.9054 131.42 42.7732C133.375 42.6049 134.951 42.4486 136.147 42.3044C137.344 42.1481 138.212 41.9197 138.751 41.6192C139.291 41.3187 139.561 40.8739 139.561 40.2849V40.1767C139.561 39.0347 139.123 38.1512 138.248 37.5261C137.387 36.9011 136.162 36.5885 134.572 36.5885C132.894 36.5885 131.559 36.8951 130.567 37.5081C129.575 38.1091 128.918 38.8665 128.597 39.78L119.975 39.203C120.412 37.5201 121.273 36.0656 122.557 34.8395C123.841 33.6014 125.497 32.6518 127.525 31.9906C129.567 31.3175 131.931 30.9809 134.615 30.9809C136.483 30.9809 138.27 31.1612 139.977 31.5218C141.698 31.8824 143.223 32.4414 144.551 33.1987C145.893 33.956 146.951 34.9297 147.724 36.1197C148.497 37.2978 148.884 38.7102 148.884 40.357V59.0371H140.043V55.1965H139.78C139.24 56.062 138.518 56.8253 137.613 57.4865C136.709 58.1356 135.622 58.6465 134.353 59.0191C133.083 59.3797 131.617 59.56 129.954 59.56ZM132.624 54.2589C133.995 54.2589 135.206 54.0365 136.257 53.5918C137.307 53.135 138.131 52.5219 138.73 51.7526C139.328 50.9833 139.627 50.1118 139.627 49.1381V46.1991C139.335 46.3553 138.934 46.4996 138.423 46.6318C137.927 46.752 137.365 46.8662 136.738 46.9744C136.111 47.0706 135.483 47.1607 134.856 47.2449C134.229 47.317 133.66 47.3831 133.149 47.4432C132.055 47.5754 131.099 47.7858 130.282 48.0743C129.465 48.3628 128.831 48.7535 128.378 49.2463C127.926 49.7271 127.7 50.3282 127.7 51.0494C127.7 52.0952 128.159 52.8946 129.079 53.4475C130.012 53.9885 131.194 54.2589 132.624 54.2589Z" fill="black"/>
<path d="M168.503 59.4879C165.95 59.4879 163.637 58.947 161.566 57.8651C159.509 56.7713 157.875 55.1665 156.664 53.0508C155.467 50.9232 154.869 48.3147 154.869 45.2254C154.869 42.0519 155.489 39.4134 156.729 37.3098C157.969 35.1941 159.618 33.6134 161.675 32.5676C163.747 31.5098 166.015 30.9809 168.481 30.9809C170.363 30.9809 171.932 31.2453 173.186 31.7743C174.455 32.2911 175.477 32.9403 176.25 33.7216C177.038 34.4909 177.636 35.2482 178.044 35.9935H178.329V22.1096H187.63V59.0371H178.438V54.6015H178.044C177.607 55.3708 176.987 56.1342 176.184 56.8915C175.397 57.6367 174.368 58.2558 173.099 58.7486C171.844 59.2415 170.312 59.4879 168.503 59.4879ZM171.457 53.3754C172.96 53.3754 174.229 53.0388 175.265 52.3657C176.316 51.6805 177.118 50.7248 177.672 49.4987C178.241 48.2726 178.526 46.8362 178.526 45.1893C178.526 43.5425 178.249 42.112 177.694 40.8979C177.14 39.6839 176.338 38.7462 175.287 38.0851C174.237 37.424 172.96 37.0934 171.457 37.0934C169.925 37.0934 168.634 37.436 167.584 38.1212C166.533 38.8063 165.738 39.756 165.198 40.9701C164.659 42.1842 164.389 43.5906 164.389 45.1893C164.389 46.8001 164.659 48.2245 165.198 49.4627C165.753 50.6888 166.548 51.6504 167.584 52.3476C168.634 53.0328 169.925 53.3754 171.457 53.3754Z" fill="black"/>
<path d="M195.295 59.0371V31.3415H204.617V59.0371H195.295ZM199.978 27.7714C198.592 27.7714 197.403 27.3927 196.411 26.6354C195.433 25.8661 194.945 24.9465 194.945 23.8767C194.945 22.8188 195.433 21.9113 196.411 21.154C197.403 20.3847 198.592 20 199.978 20C201.364 20 202.546 20.3847 203.523 21.154C204.515 21.9113 205.011 22.8188 205.011 23.8767C205.011 24.9465 204.515 25.8661 203.523 26.6354C202.546 27.3927 201.364 27.7714 199.978 27.7714Z" fill="black"/>
<path d="M221.408 43.0256V59.0371H212.085V31.3415H220.97V36.2279H221.364C222.108 34.6171 223.356 33.343 225.107 32.4053C226.857 31.4557 228.98 30.9809 231.475 30.9809C233.809 30.9809 235.844 31.4016 237.581 32.2431C239.317 33.0845 240.666 34.2866 241.629 35.8493C242.592 37.3999 243.073 39.2511 243.073 41.4028V59.0371H233.751V42.7732C233.765 41.0783 233.24 39.756 232.175 38.8063C231.11 37.8447 229.644 37.3639 227.776 37.3639C226.522 37.3639 225.413 37.5862 224.45 38.031C223.502 38.4758 222.758 39.1249 222.218 39.9784C221.693 40.8198 221.423 41.8356 221.408 43.0256Z" fill="black"/>
<path d="M265.565 70C262.545 70 259.955 69.6574 257.796 68.9722C255.651 68.2991 253.944 67.3795 252.675 66.2135C251.406 65.0475 250.582 63.7372 250.202 62.2827L258.825 61.3271C259.087 61.88 259.503 62.3969 260.072 62.8778C260.641 63.3586 261.392 63.7432 262.326 64.0317C263.274 64.3323 264.427 64.4825 265.784 64.4825C267.812 64.4825 269.482 64.0738 270.795 63.2564C272.123 62.451 272.787 61.0987 272.787 59.1994V54.1327H272.393C271.984 54.902 271.372 55.6293 270.555 56.3145C269.738 56.9996 268.687 57.5586 267.403 57.9913C266.119 58.4241 264.587 58.6405 262.808 58.6405C260.284 58.6405 257.986 58.1596 255.914 57.198C253.857 56.2243 252.216 54.7398 250.99 52.7443C249.779 50.7369 249.174 48.2005 249.174 45.1352C249.174 41.9978 249.794 39.3773 251.034 37.2737C252.274 35.1701 253.923 33.5954 255.98 32.5496C258.051 31.5038 260.32 30.9809 262.786 30.9809C264.668 30.9809 266.243 31.2453 267.513 31.7743C268.782 32.2911 269.803 32.9403 270.576 33.7216C271.364 34.4909 271.97 35.2482 272.393 35.9935H272.743V31.3415H282V59.3076C282 61.6637 281.3 63.635 279.899 65.2218C278.499 66.8085 276.558 67.9986 274.078 68.7919C271.612 69.5973 268.775 70 265.565 70ZM265.762 52.8705C267.265 52.8705 268.534 52.564 269.57 51.951C270.62 51.3259 271.423 50.4364 271.977 49.2824C272.546 48.1164 272.831 46.722 272.831 45.0992C272.831 43.4764 272.553 42.07 271.999 40.8799C271.444 39.6778 270.642 38.7462 269.592 38.0851C268.541 37.424 267.265 37.0934 265.762 37.0934C264.23 37.0934 262.939 37.436 261.888 38.1212C260.838 38.7943 260.043 39.7319 259.503 40.934C258.963 42.1361 258.693 43.5245 258.693 45.0992C258.693 46.6979 258.963 48.0803 259.503 49.2463C260.057 50.4003 260.853 51.2958 261.888 51.9329C262.939 52.558 264.23 52.8705 265.762 52.8705Z" fill="black"/>
<path d="M37 35C37 15.67 52.67 -5.4594e-06 72 -3.51701e-06C91.33 -1.57462e-06 107 15.67 107 35C107 54.33 91.33 70 72 70C52.67 70 37 54.33 37 35ZM96.6744 35C96.6744 21.3727 85.6273 10.3256 72 10.3256C58.3727 10.3256 47.3256 21.3727 47.3256 35C47.3256 48.6273 58.3727 59.6744 72 59.6744C85.6273 59.6744 96.6744 48.6273 96.6744 35Z" fill="black" fill-opacity="0.25"/>
<path d="M42.1625 35C39.3113 35 36.961 37.3236 37.3801 40.1438C37.8001 42.9706 38.5656 45.7417 39.6642 48.3939C41.4231 52.6403 44.0012 56.4987 47.2513 59.7487C50.5013 62.9988 54.3597 65.5769 58.6061 67.3358C61.2583 68.4344 64.0294 69.1999 66.8562 69.6199C69.6764 70.039 72 67.6887 72 64.8375C72 61.9863 69.664 59.7291 66.8751 59.1369C65.4013 58.824 63.9559 58.376 62.5573 57.7967C59.5636 56.5567 56.8434 54.7391 54.5521 52.4479C52.2609 50.1566 50.4433 47.4364 49.2033 44.4427C48.624 43.0441 48.176 41.5987 47.8631 40.1249C47.2709 37.3359 45.0137 35 42.1625 35Z" fill="black"/>
</svg>
